<svg width="1200" height="1201" viewBox="0 0 1200 1201" fill="none" xmlns="http://www.w3.org/2000/svg">
<path d="M741.421 59.4213C703.914 21.9141 653.043 0.842703 600 0.842709C546.957 0.842714 496.086 21.9141 458.579 59.4214C421.071 96.9286 400 147.799 400 200.843C400 253.886 421.071 304.757 458.579 342.264L600 200.843L741.421 59.4213Z" fill="#F97316"/>
<path d="M458.579 742.264C496.086 779.771 546.957 800.843 600 800.843C653.043 800.843 703.914 779.771 741.421 742.264C778.929 704.757 800 653.886 800 600.843C800 547.799 778.929 496.929 741.421 459.421L600 600.843L458.579 742.264Z" fill="#10B981"/>
<path d="M1141.42 59.4214C1122.85 40.8497 1100.8 26.1178 1076.54 16.0668C1052.27 6.01588 1026.26 0.842715 1000 0.842709C973.736 0.842702 947.728 6.01585 923.463 16.0668C899.198 26.1177 877.15 40.8496 858.579 59.4213C840.007 77.993 825.275 100.041 815.224 124.306C805.173 148.571 800 174.578 800 200.843C800 227.107 805.173 253.114 815.224 277.379C825.275 301.644 840.007 323.692 858.579 342.264L1000 200.843L1141.42 59.4214Z" fill="#6366F1"/>
<path d="M1141.42 859.421C1178.93 896.929 1200 947.799 1200 1000.84C1200 1053.89 1178.93 1104.76 1141.42 1142.26C1103.91 1179.77 1053.04 1200.84 1000 1200.84C946.957 1200.84 896.086 1179.77 858.579 1142.26L1000 1000.84L1141.42 859.421Z" fill="#14B8A6"/>
<path d="M341.421 859.421C322.85 840.85 300.802 826.118 276.537 816.067C252.272 806.016 226.264 800.843 200 800.843C173.736 800.843 147.728 806.016 123.463 816.067C99.1982 826.118 77.1504 840.85 58.5787 859.421C40.0069 877.993 25.275 900.041 15.2241 924.306C5.17316 948.571 2.29611e-06 974.578 0 1000.84C-2.2961e-06 1027.11 5.17315 1053.11 15.2241 1077.38C25.275 1101.64 40.0069 1123.69 58.5786 1142.26L200 1000.84L341.421 859.421Z" fill="#6366F1"/>
<path d="M341.421 459.421C303.914 421.914 253.043 400.843 200 400.843C146.957 400.843 96.0859 421.914 58.5786 459.421C21.0714 496.929 -1.68606e-06 547.799 0 600.843C1.68606e-06 653.886 21.0714 704.757 58.5786 742.264L200 600.843L341.421 459.421Z" fill="#F97316"/>
<path d="M58.5786 342.264C21.0713 304.757 -7.19142e-05 253.886 -9.34934e-05 200.843C-9.34934e-05 147.799 21.0713 96.9286 58.5785 59.4214C96.0858 21.9141 146.957 0.842714 200 0.842703C253.043 0.842716 303.914 21.9141 341.421 59.4213L200 200.843L58.5786 342.264Z" fill="#EF4444"/>
</svg>
