<?xml version="1.0" standalone="no"?><!DOCTYPE svg PUBLIC "-//W3C//DTD SVG 1.1//EN"
        "http://www.w3.org/Graphics/SVG/1.1/DTD/svg11.dtd">
<svg t="1723004942723" class="icon" viewBox="0 0 1024 1024" version="1.1" xmlns="http://www.w3.org/2000/svg" p-id="4228"
     width="200" height="200">
    <path d="M489.957 63.359c12.499-12.484 32.75-12.478 45.24 0.014L638.217 166.39h188.393c17.496 0 31.713 14.043 31.995 31.472l0.005 0.529-0.001 188.391 103.02 103.02c12.366 12.367 12.496 32.338 0.384 44.864l-0.37 0.377-103.034 103.161v188.405c0 17.496-14.041 31.713-31.47 31.995l-0.53 0.005-188.391-0.001-103.02 103.02c-12.366 12.366-32.337 12.496-44.863 0.384l-0.377-0.37-103.161-103.034H198.39c-17.496 0-31.713-14.041-31.995-31.47l-0.005-0.53V638.205L63.358 535.043c-12.358-12.374-12.476-32.345-0.356-44.864l0.37-0.377L166.39 386.783V198.391c0-17.497 14.042-31.713 31.471-31.996l0.53-0.004 188.406-0.001z m22.599 67.881l-89.902 89.792a32 32 0 0 1-22.614 9.359l-169.65-0.001v169.648a32 32 0 0 1-9.015 22.265l-0.357 0.363-89.778 89.777 89.792 89.905a32 32 0 0 1 9.354 22.105l0.004 0.509v169.646h169.65a32 32 0 0 1 22.251 9.003l0.363 0.356 89.902 89.792 89.778-89.778a32 32 0 0 1 22.119-9.368l0.509-0.004 169.646-0.001V624.962a32 32 0 0 1 9.003-22.251l0.356-0.363 89.792-89.904-89.778-89.778a32 32 0 0 1-9.368-22.119l-0.004-0.509-0.001-169.648H624.962a32 32 0 0 1-22.265-9.015l-0.363-0.357-89.778-89.778z m63.919 199.985c58.927 0 110.005 57.525 128.34 130.864 8.972 35.89 9.325 73.201-0.002 107.464-10.55 38.754-33.002 72.148-66.867 96.777-63.46 46.152-138.441 52.93-203.455 24.816-60.736-26.264-103.266-79.785-103.266-135.996 0-17.673 14.327-32 32-32 59.9 0 100.232-7.529 128.859-26.613 15.955-10.637 28.15-25.02 36.87-44.452 5.432-12.108 9.51-26.181 12.12-42.36l0.305-1.952a248.572 248.572 0 0 0 1.538-12.136l0.206-2.095c0.498-5.262 0.86-10.717 1.083-16.37l0.082-2.272c0.062-1.901 0.109-3.825 0.14-5.77l0.03-2.347c0.011-1.178 0.017-2.364 0.017-3.558 0-17.673 14.327-32 32-32z m29.243 78.327l-0.216 1.7c-8.433 63.962-34.727 109.742-77.917 138.536-22.798 15.199-49.448 25.083-80.185 30.821-13.305 2.484-27.188 4.179-42.14 5.22l-0.839 0.056 0.195 0.334c10.625 17.996 29.677 34.842 54.11 45.673l1.167 0.512c44.676 19.319 95.664 14.71 140.41-17.834 21.86-15.897 35.965-36.876 42.758-61.828 6.326-23.239 6.078-49.48-0.335-75.13-7.329-29.314-21.53-53.521-36.883-67.944l-0.125-0.116z"
          p-id="4229"></path>
</svg>
